<?xml version="1.0" encoding="UTF-8" standalone="no"?>
<svg
   xmlns:dc="http://purl.org/dc/elements/1.1/"
   xmlns:cc="http://creativecommons.org/ns#"
   xmlns:rdf="http://www.w3.org/1999/02/22-rdf-syntax-ns#"
   xmlns:svg="http://www.w3.org/2000/svg"
   xmlns="http://www.w3.org/2000/svg"
   xmlns:sodipodi="http://sodipodi.sourceforge.net/DTD/sodipodi-0.dtd"
   xmlns:inkscape="http://www.inkscape.org/namespaces/inkscape"
   version="1.1"
   x="0px"
   y="0px"
   viewBox="0 0 76.437859 89.999863"
   enable-background="new 0 0 100 100"
   xml:space="preserve"
   id="svg24"
   sodipodi:docname="noun_Office Folders_745644.svg"
   width="76.437859"
   height="89.999863"
   inkscape:version="0.92.4 (5da689c313, 2019-01-14)"><metadata
     id="metadata30"><rdf:RDF><cc:Work
         rdf:about=""><dc:format>image/svg+xml</dc:format><dc:type
           rdf:resource="http://purl.org/dc/dcmitype/StillImage" /></cc:Work></rdf:RDF></metadata><defs
     id="defs28" /><sodipodi:namedview
     pagecolor="#ffffff"
     bordercolor="#666666"
     borderopacity="1"
     objecttolerance="10"
     gridtolerance="10"
     guidetolerance="10"
     inkscape:pageopacity="0"
     inkscape:pageshadow="2"
     inkscape:window-width="1920"
     inkscape:window-height="1051"
     id="namedview26"
     showgrid="false"
     inkscape:zoom="3.776"
     inkscape:cx="54.655659"
     inkscape:cy="13.345111"
     inkscape:window-x="0"
     inkscape:window-y="0"
     inkscape:window-maximized="1"
     inkscape:current-layer="svg24" /><g
     id="g18"
     transform="translate(-11.781,-5.0001409)"><path
       d="M 38.121,95 H 16.316 c -2.501,0 -4.535,-2.034 -4.535,-4.535 v -78.19 c 0,-2.501 2.035,-4.536 4.535,-4.536 h 21.805 c 2.501,0 4.535,2.035 4.535,4.536 v 78.19 C 42.656,92.966 40.622,95 38.121,95 Z M 16.316,10.555 c -0.949,0 -1.72,0.772 -1.72,1.721 v 78.19 c 0,0.948 0.772,1.72 1.72,1.72 h 21.805 c 0.949,0 1.72,-0.772 1.72,-1.72 v -78.19 c 0,-0.949 -0.772,-1.721 -1.72,-1.721 H 16.316 Z"
       id="path2"
       inkscape:connector-curvature="0" /><path
       d="M 36.26,24.32 H 18.178 c -0.777,0 -1.407,-0.63 -1.407,-1.407 0,-0.777 0.63,-1.407 1.407,-1.407 H 36.26 c 0.777,0 1.407,0.63 1.407,1.407 0,0.777 -0.63,1.407 -1.407,1.407 z"
       id="path4"
       inkscape:connector-curvature="0" /><path
       d="M 36.26,33.85 H 18.178 c -0.777,0 -1.407,-0.63 -1.407,-1.407 0,-0.777 0.63,-1.407 1.407,-1.407 H 36.26 c 0.777,0 1.407,0.63 1.407,1.407 0,0.777 -0.63,1.407 -1.407,1.407 z"
       id="path6"
       inkscape:connector-curvature="0" /><path
       d="M 36.26,84.941 H 18.178 c -0.777,0 -1.407,-0.63 -1.407,-1.407 0,-0.777 0.63,-1.407 1.407,-1.407 H 36.26 c 0.777,0 1.407,0.63 1.407,1.407 0,0.777 -0.63,1.407 -1.407,1.407 z"
       id="path8"
       inkscape:connector-curvature="0" /><path
       d="m 84.559,90.704 -21.395,4.21 C 60.71,95.397 58.321,93.794 57.839,91.34 L 42.742,14.622 c -0.483,-2.454 1.121,-4.843 3.574,-5.326 l 21.395,-4.21 c 2.454,-0.483 4.843,1.121 5.326,3.575 L 88.133,85.38 c 0.483,2.453 -1.121,4.841 -3.574,5.324 z M 46.86,12.058 c -0.931,0.183 -1.539,1.089 -1.356,2.021 L 60.6,90.798 c 0.183,0.931 1.089,1.539 2.02,1.355 l 21.395,-4.21 c 0.931,-0.183 1.539,-1.089 1.356,-2.02 L 70.275,9.204 C 70.092,8.273 69.186,7.665 68.255,7.848 Z"
       id="path10"
       inkscape:connector-curvature="0" /><path
       d="m 69.086,21.714 -17.742,3.491 c -0.763,0.15 -1.503,-0.347 -1.653,-1.109 -0.15,-0.762 0.346,-1.503 1.109,-1.653 l 17.742,-3.491 c 0.763,-0.15 1.503,0.347 1.653,1.109 0.15,0.762 -0.346,1.502 -1.109,1.653 z"
       id="path12"
       inkscape:connector-curvature="0" /><path
       d="m 70.926,31.065 -17.742,3.491 c -0.763,0.15 -1.503,-0.347 -1.653,-1.109 -0.15,-0.762 0.346,-1.503 1.109,-1.653 l 17.742,-3.491 c 0.763,-0.15 1.503,0.347 1.653,1.109 0.15,0.762 -0.346,1.502 -1.109,1.653 z"
       id="path14"
       inkscape:connector-curvature="0" /><path
       d="m 80.79,81.194 -17.742,3.491 c -0.763,0.15 -1.503,-0.347 -1.653,-1.109 -0.15,-0.762 0.346,-1.503 1.109,-1.653 l 17.742,-3.491 c 0.763,-0.15 1.503,0.347 1.653,1.109 0.15,0.763 -0.346,1.503 -1.109,1.653 z"
       id="path16"
       inkscape:connector-curvature="0" /></g></svg>