<?xml version="1.0" encoding="UTF-8" standalone="no"?>
<svg
   xmlns:dc="http://purl.org/dc/elements/1.1/"
   xmlns:cc="http://creativecommons.org/ns#"
   xmlns:rdf="http://www.w3.org/1999/02/22-rdf-syntax-ns#"
   xmlns:svg="http://www.w3.org/2000/svg"
   xmlns="http://www.w3.org/2000/svg"
   xmlns:sodipodi="http://sodipodi.sourceforge.net/DTD/sodipodi-0.dtd"
   xmlns:inkscape="http://www.inkscape.org/namespaces/inkscape"
   version="1.1"
   x="0px"
   y="0px"
   viewBox="0 0 76.075951 90.000221"
   enable-background="new 0 0 100 100"
   xml:space="preserve"
   id="svg20"
   sodipodi:docname="dossier.svg"
   width="76.075951"
   height="90.000221"
   inkscape:version="0.92.4 (5da689c313, 2019-01-14)"><metadata
     id="metadata26"><rdf:RDF><cc:Work
         rdf:about=""><dc:format>image/svg+xml</dc:format><dc:type
           rdf:resource="http://purl.org/dc/dcmitype/StillImage" /></cc:Work></rdf:RDF></metadata><defs
     id="defs24" /><sodipodi:namedview
     pagecolor="#ffffff"
     bordercolor="#666666"
     borderopacity="1"
     objecttolerance="10"
     gridtolerance="10"
     guidetolerance="10"
     inkscape:pageopacity="0"
     inkscape:pageshadow="2"
     inkscape:window-width="1920"
     inkscape:window-height="1051"
     id="namedview22"
     showgrid="false"
     inkscape:zoom="5.3400704"
     inkscape:cx="34.588329"
     inkscape:cy="44.515882"
     inkscape:window-x="0"
     inkscape:window-y="0"
     inkscape:window-maximized="1"
     inkscape:current-layer="svg20" /><g
     id="g14"
     transform="translate(-11.962,-4.9997766)"><path
       d="M 87.957,85.515 73.269,8.686 C 72.799,6.229 70.418,4.611 67.961,5.081 L 46.535,9.177 c -2.457,0.47 -4.074,2.852 -3.604,5.309 l 14.688,76.829 c 0.47,2.457 2.851,4.073 5.308,3.604 l 21.425,-4.096 c 2.457,-0.47 4.074,-2.851 3.605,-5.308 z m -4.134,2.542 -21.426,4.096 c -0.932,0.178 -1.835,-0.435 -2.013,-1.367 L 45.697,13.957 c -0.178,-0.933 0.435,-1.836 1.367,-2.014 L 68.49,7.847 c 0.932,-0.178 1.835,0.435 2.014,1.368 l 14.688,76.829 c 0.177,0.932 -0.436,1.835 -1.369,2.013 z"
       id="path2"
       inkscape:connector-curvature="0" /><circle
       cx="71.221001"
       cy="80.221001"
       r="4.9299998"
       id="circle4" /><path
       d="M 74.352,44.943 68.478,14.219 C 68.151,12.509 66.5,11.388 64.79,11.715 l -12.861,2.459 c -1.71,0.327 -2.831,1.978 -2.504,3.688 l 5.874,30.724 c 0.327,1.71 1.978,2.831 3.688,2.504 l 12.861,-2.459 c 1.71,-0.327 2.831,-1.978 2.504,-3.688 z m -19.421,-8.61 c -0.151,-0.789 0.366,-1.551 1.156,-1.702 l 12.385,-2.368 c 0.789,-0.151 1.551,0.367 1.702,1.156 0.151,0.789 -0.366,1.551 -1.156,1.702 l -12.385,2.368 c -0.789,0.151 -1.551,-0.367 -1.702,-1.156 z m 1.047,5.478 c -0.151,-0.789 0.366,-1.551 1.156,-1.702 l 12.385,-2.368 c 0.789,-0.151 1.551,0.367 1.702,1.156 0.151,0.789 -0.366,1.551 -1.156,1.702 L 57.68,42.967 C 56.891,43.118 56.129,42.6 55.978,41.811 Z m 2.75,6.634 c -0.789,0.151 -1.551,-0.367 -1.702,-1.156 -0.151,-0.789 0.366,-1.551 1.156,-1.702 l 12.385,-2.368 c 0.789,-0.151 1.551,0.367 1.702,1.156 0.151,0.789 -0.366,1.551 -1.156,1.702 z"
       id="path6"
       inkscape:connector-curvature="0" /><path
       d="M 38.313,7.706 H 16.499 c -2.502,0 -4.537,2.036 -4.537,4.537 v 78.221 c 0,2.502 2.035,4.536 4.537,4.536 h 21.813 c 2.502,0 4.537,-2.035 4.537,-4.536 V 12.243 C 42.85,9.741 40.814,7.706 38.313,7.706 Z m 1.721,82.758 c 0,0.949 -0.772,1.721 -1.721,1.721 H 16.499 c -0.949,0 -1.721,-0.772 -1.721,-1.721 V 12.243 c 0,-0.95 0.772,-1.721 1.721,-1.721 h 21.813 c 0.949,0 1.721,0.772 1.721,1.721 v 78.221 z"
       id="path8"
       inkscape:connector-curvature="0" /><circle
       cx="27.406"
       cy="82.121002"
       r="4.9299998"
       id="circle10" /><path
       d="M 33.953,13.626 H 20.859 c -1.741,0 -3.152,1.411 -3.152,3.152 v 31.281 c 0,1.741 1.411,3.152 3.152,3.152 h 13.094 c 1.741,0 3.152,-1.411 3.152,-3.152 V 16.778 c 0,-1.741 -1.411,-3.152 -3.152,-3.152 z m -0.242,34.938 h -12.61 c -0.804,0 -1.455,-0.652 -1.455,-1.455 0,-0.803 0.651,-1.455 1.455,-1.455 H 33.71 c 0.804,0 1.455,0.652 1.455,1.455 0,0.803 -0.651,1.455 -1.454,1.455 z m 0,-5.577 h -12.61 c -0.804,0 -1.455,-0.652 -1.455,-1.455 0,-0.803 0.651,-1.455 1.455,-1.455 H 33.71 c 0.804,0 1.455,0.652 1.455,1.455 0,0.803 -0.651,1.455 -1.454,1.455 z m 0,-5.577 h -12.61 c -0.804,0 -1.455,-0.652 -1.455,-1.455 0,-0.803 0.651,-1.455 1.455,-1.455 H 33.71 c 0.804,0 1.455,0.652 1.455,1.455 0,0.803 -0.651,1.455 -1.454,1.455 z"
       id="path12"
       inkscape:connector-curvature="0" /></g></svg>