<?xml version="1.0" encoding="UTF-8" standalone="no"?>
<svg
   xmlns:dc="http://purl.org/dc/elements/1.1/"
   xmlns:cc="http://creativecommons.org/ns#"
   xmlns:rdf="http://www.w3.org/1999/02/22-rdf-syntax-ns#"
   xmlns:svg="http://www.w3.org/2000/svg"
   xmlns="http://www.w3.org/2000/svg"
   xmlns:sodipodi="http://sodipodi.sourceforge.net/DTD/sodipodi-0.dtd"
   xmlns:inkscape="http://www.inkscape.org/namespaces/inkscape"
   data-name="Layer 1"
   viewBox="0 0 91.339996 91.339996"
   version="1.1"
   id="svg4"
   sodipodi:docname="linkedin.svg"
   width="91.339996"
   height="91.339996"
   inkscape:version="0.92.4 (5da689c313, 2019-01-14)">
  <metadata
     id="metadata10">
    <rdf:RDF>
      <cc:Work
         rdf:about="">
        <dc:format>image/svg+xml</dc:format>
        <dc:type
           rdf:resource="http://purl.org/dc/dcmitype/StillImage" />
      </cc:Work>
    </rdf:RDF>
  </metadata>
  <defs
     id="defs8" />
  <sodipodi:namedview
     pagecolor="#ffffff"
     bordercolor="#666666"
     borderopacity="1"
     objecttolerance="10"
     gridtolerance="10"
     guidetolerance="10"
     inkscape:pageopacity="0"
     inkscape:pageshadow="2"
     inkscape:window-width="1920"
     inkscape:window-height="1019"
     id="namedview6"
     showgrid="false"
     inkscape:zoom="3.337544"
     inkscape:cx="12.459393"
     inkscape:cy="40.503524"
     inkscape:window-x="0"
     inkscape:window-y="32"
     inkscape:window-maximized="1"
     inkscape:current-layer="svg4" />
  <path
     d="m 50.22,40.4 h 0.07 v -0.11 z m 0,0 h 0.07 v -0.11 z m 0,0 h 0.07 v -0.11 z m 0,0 h 0.07 v -0.11 z m 0,0 h 0.07 v -0.11 z m 0,0 h 0.07 v -0.11 z m 0,0 h 0.07 v -0.11 z m 0,0 h 0.07 v -0.11 z m 0,0 h 0.07 v -0.11 z m 0,0 h 0.07 v -0.11 z m 0,0 h 0.07 v -0.11 z m 0,0 h 0.07 v -0.11 z m 0,0 h 0.07 v -0.11 z m 0,0 h 0.07 v -0.11 z m 0,0 h 0.07 v -0.11 z m 0,0 h 0.07 V 40.29 Z M 45.67,0 A 45.67,45.67 0 1 0 91.34,45.67 45.72,45.72 0 0 0 45.67,0 Z M 34.25,66.23 a 0.77,0.77 0 0 1 -0.77,0.76 h -8.8 A 0.76,0.76 0 0 1 23.92,66.23 V 36.66 a 0.76,0.76 0 0 1 0.76,-0.77 h 8.8 a 0.77,0.77 0 0 1 0.77,0.77 z M 28.77,31.94 a 5.53,5.53 0 1 1 5.53,-5.53 5.52,5.52 0 0 1 -5.53,5.53 z m 42.72,34.29 a 0.77,0.77 0 0 1 -0.77,0.76 h -8.8 A 0.76,0.76 0 0 1 61.16,66.23 V 50.34 c 0,-4.18 -1.49,-7 -5.23,-7 a 5.65,5.65 0 0 0 -5.3,3.78 7.12,7.12 0 0 0 -0.34,2.52 V 66.23 A 0.77,0.77 0 0 1 49.52,67 h -8.8 a 0.76,0.76 0 0 1 -0.76,-0.77 c 0,-4.22 0.11,-24.71 0,-29.53 a 0.76,0.76 0 0 1 0.76,-0.77 h 8.78 a 0.76,0.76 0 0 1 0.77,0.77 v 3.63 a 10.26,10.26 0 0 1 9.31,-5.13 c 6.79,0 11.89,4.44 11.89,14 z m -21.2,-25.8 v -0.11 l -0.07,0.11 z m -0.07,0 h 0.07 v -0.11 z m 0,0 h 0.07 v -0.11 z m 0,0 h 0.07 v -0.11 z m 0,0 h 0.07 v -0.11 z m 0,0 h 0.07 v -0.11 z m 0,0 h 0.07 v -0.11 z m 0,0 h 0.07 v -0.11 z m 0,0 h 0.07 v -0.11 z m 0,0 h 0.07 v -0.11 z m 0,0 h 0.07 v -0.11 z m 0,0 h 0.07 v -0.11 z m 0,0 h 0.07 v -0.11 z m 0,0 h 0.07 v -0.11 z m 0,0 h 0.07 v -0.11 z"
     id="path2"
     inkscape:connector-curvature="0" />
  <path
     id="path12"
     d="m 50.22,40.4 h 0.07 v -0.11 z m 0,0 h 0.07 v -0.11 z m 0,0 h 0.07 v -0.11 z m 0,0 h 0.07 v -0.11 z m 0,0 h 0.07 v -0.11 z m 0,0 h 0.07 v -0.11 z m 0,0 h 0.07 v -0.11 z m 0,0 h 0.07 v -0.11 z m 0,0 h 0.07 v -0.11 z m 0,0 h 0.07 v -0.11 z m 0,0 h 0.07 v -0.11 z m 0,0 h 0.07 v -0.11 z m 0,0 h 0.07 v -0.11 z m 0,0 h 0.07 v -0.11 z m 0,0 h 0.07 v -0.11 z m 0,0 h 0.07 V 40.29 Z M 45.67,0 A 45.67,45.67 0 1 0 91.34,45.67 45.72,45.72 0 0 0 45.67,0 Z M 34.25,66.23 a 0.77,0.77 0 0 1 -0.77,0.76 h -8.8 A 0.76,0.76 0 0 1 23.92,66.23 V 36.66 a 0.76,0.76 0 0 1 0.76,-0.77 h 8.8 a 0.77,0.77 0 0 1 0.77,0.77 z M 28.77,31.94 a 5.53,5.53 0 1 1 5.53,-5.53 5.52,5.52 0 0 1 -5.53,5.53 z m 42.72,34.29 a 0.77,0.77 0 0 1 -0.77,0.76 h -8.8 A 0.76,0.76 0 0 1 61.16,66.23 V 50.34 c 0,-4.18 -1.49,-7 -5.23,-7 a 5.65,5.65 0 0 0 -5.3,3.78 7.12,7.12 0 0 0 -0.34,2.52 V 66.23 A 0.77,0.77 0 0 1 49.52,67 h -8.8 a 0.76,0.76 0 0 1 -0.76,-0.77 c 0,-4.22 0.11,-24.71 0,-29.53 a 0.76,0.76 0 0 1 0.76,-0.77 h 8.78 a 0.76,0.76 0 0 1 0.77,0.77 v 3.63 a 10.26,10.26 0 0 1 9.31,-5.13 c 6.79,0 11.89,4.44 11.89,14 z m -21.2,-25.8 v -0.11 l -0.07,0.11 z m -0.07,0 h 0.07 v -0.11 z m 0,0 h 0.07 v -0.11 z m 0,0 h 0.07 v -0.11 z m 0,0 h 0.07 v -0.11 z m 0,0 h 0.07 v -0.11 z m 0,0 h 0.07 v -0.11 z m 0,0 h 0.07 v -0.11 z m 0,0 h 0.07 v -0.11 z m 0,0 h 0.07 v -0.11 z m 0,0 h 0.07 v -0.11 z m 0,0 h 0.07 v -0.11 z m 0,0 h 0.07 v -0.11 z m 0,0 h 0.07 v -0.11 z m 0,0 h 0.07 v -0.11 z"
     inkscape:connector-curvature="0" />
</svg>
