<?xml version="1.0" encoding="UTF-8" standalone="no"?>
<!-- Created with Inkscape (http://www.inkscape.org/) -->

<svg
   xmlns:dc="http://purl.org/dc/elements/1.1/"
   xmlns:cc="http://creativecommons.org/ns#"
   xmlns:rdf="http://www.w3.org/1999/02/22-rdf-syntax-ns#"
   xmlns:svg="http://www.w3.org/2000/svg"
   xmlns="http://www.w3.org/2000/svg"
   xmlns:sodipodi="http://sodipodi.sourceforge.net/DTD/sodipodi-0.dtd"
   xmlns:inkscape="http://www.inkscape.org/namespaces/inkscape"
   width="82.776787mm"
   height="82.776787mm"
   viewBox="0 0 82.776787 82.776787"
   version="1.1"
   id="svg8"
   inkscape:version="0.92.4 (5da689c313, 2019-01-14)"
   sodipodi:docname="logo.svg"
   inkscape:export-filename="/media/luka/Data/Projects/Programming/Web/GitHub Portfolio/icons/logo.svg.png"
   inkscape:export-xdpi="128.22"
   inkscape:export-ydpi="128.22">
  <defs
     id="defs2" />
  <sodipodi:namedview
     id="base"
     pagecolor="#ffffff"
     bordercolor="#666666"
     borderopacity="1.0"
     inkscape:pageopacity="0.0"
     inkscape:pageshadow="2"
     inkscape:zoom="1.4"
     inkscape:cx="-9.600877"
     inkscape:cy="79.299836"
     inkscape:document-units="mm"
     inkscape:current-layer="layer1"
     showgrid="false"
     inkscape:snap-global="true"
     inkscape:snap-bbox="true"
     inkscape:bbox-paths="false"
     inkscape:bbox-nodes="true"
     inkscape:snap-bbox-midpoints="true"
     inkscape:snap-bbox-edge-midpoints="false"
     inkscape:snap-nodes="false"
     inkscape:window-width="1920"
     inkscape:window-height="1019"
     inkscape:window-x="1920"
     inkscape:window-y="32"
     inkscape:window-maximized="1" />
  <metadata
     id="metadata5">
    <rdf:RDF>
      <cc:Work
         rdf:about="">
        <dc:format>image/svg+xml</dc:format>
        <dc:type
           rdf:resource="http://purl.org/dc/dcmitype/StillImage" />
        <dc:title />
      </cc:Work>
    </rdf:RDF>
  </metadata>
  <g
     inkscape:label="Layer 1"
     inkscape:groupmode="layer"
     id="layer1"
     transform="translate(-86.556545,-104.23214)">
    <path
       style="fill:#3e70bb;fill-opacity:1;stroke-width:0.99999994"
       d="M 156.42773,0 A 156.42857,156.42857 0 0 0 0,156.42773 156.42857,156.42857 0 0 0 156.42773,312.85742 156.42857,156.42857 0 0 0 312.85742,156.42773 156.42857,156.42857 0 0 0 156.42773,0 Z m -52.95312,88.498047 h 56.85351 v 8.84375 h -3.11914 c -14.04,0 -15.5996,0.940481 -15.5996,8.843753 v 5.45703 94.83984 c 0,3.95164 0.17338,5.07995 1.38671,6.20899 1.56,1.69355 5.8918,2.82421 11.0918,2.82421 h 7.28125 c 14.56,10e-6 24.613,-3.57531 29.98633,-10.91406 4.50667,-6.20971 8.66706,-19.00696 10.40039,-31.80273 h 7.62695 l -3.64062,51.56055 H 103.47461 v -8.84376 h 3.12109 c 14.04,0 15.59961,-0.94243 15.59961,-8.8457 v -5.45703 -89.57031 -5.45703 c 0,-7.903272 -1.55961,-8.843753 -15.59961,-8.843753 h -3.12109 z"
       id="path16"
       inkscape:connector-curvature="0"
       transform="matrix(0.26458333,0,0,0.26458333,86.556545,104.23214)" />
  </g>
  <g
     inkscape:groupmode="layer"
     id="layer2"
     inkscape:label="Layer 2"
     transform="translate(-7.7270505e-7,1.2681885e-5)"
     style="display:inline">
    <text
       xml:space="preserve"
       style="font-style:normal;font-weight:normal;font-size:10.97278786px;line-height:1.25;font-family:sans-serif;letter-spacing:0px;word-spacing:0px;fill:#000000;fill-opacity:1;stroke:none;stroke-width:0.27431971"
       x="25.475679"
       y="58.404888"
       id="text822"
       transform="scale(0.9645072,1.0367989)"><tspan
         sodipodi:role="line"
         x="0"
         y="0"
         style="stroke-width:0.27431971"
         id="tspan824"><tspan
           x="25.475679"
           y="58.404888"
           style="font-style:normal;font-variant:normal;font-weight:normal;font-stretch:normal;font-size:51.2063446px;font-family:'Century Schoolbook L';-inkscape-font-specification:'Century Schoolbook L';fill:#ffffff;stroke-width:0.27431971"
           id="tspan818" /></tspan></text>
    <g
       aria-label="L"
       style="font-style:normal;font-weight:normal;font-size:10.58333302px;line-height:1.25;font-family:sans-serif;letter-spacing:0px;word-spacing:0px;fill:#000000;fill-opacity:1;stroke:none;stroke-width:0.26458332"
       id="text842" />
  </g>
</svg>
