<?xml version="1.0" encoding="UTF-8" standalone="no"?>
<svg
   xmlns:dc="http://purl.org/dc/elements/1.1/"
   xmlns:cc="http://creativecommons.org/ns#"
   xmlns:rdf="http://www.w3.org/1999/02/22-rdf-syntax-ns#"
   xmlns:svg="http://www.w3.org/2000/svg"
   xmlns="http://www.w3.org/2000/svg"
   xmlns:sodipodi="http://sodipodi.sourceforge.net/DTD/sodipodi-0.dtd"
   xmlns:inkscape="http://www.inkscape.org/namespaces/inkscape"
   id="Layer_1"
   style="enable-background:new 0 0 56.7 56.7;"
   version="1.1"
   viewBox="0 0 56.7 56.7"
   xml:space="preserve"
   sodipodi:docname="upwork.svg"
   inkscape:version="0.92.4 (5da689c313, 2019-01-14)"><metadata
     id="metadata9"><rdf:RDF><cc:Work
         rdf:about=""><dc:format>image/svg+xml</dc:format><dc:type
           rdf:resource="http://purl.org/dc/dcmitype/StillImage" /><dc:title></dc:title></cc:Work></rdf:RDF></metadata><defs
     id="defs7" /><sodipodi:namedview
     pagecolor="#ffffff"
     bordercolor="#666666"
     borderopacity="1"
     objecttolerance="10"
     gridtolerance="10"
     guidetolerance="10"
     inkscape:pageopacity="0"
     inkscape:pageshadow="2"
     inkscape:window-width="1920"
     inkscape:window-height="1019"
     id="namedview5"
     showgrid="false"
     inkscape:zoom="8"
     inkscape:cx="-12.359727"
     inkscape:cy="24.339346"
     inkscape:window-x="0"
     inkscape:window-y="32"
     inkscape:window-maximized="1"
     inkscape:current-layer="Layer_1" /><path
     style="stroke-width:1.00205624"
     d="M 28.349609 0 A 28.346094 28.35 0 0 0 0.00390625 28.349609 A 28.346094 28.35 0 0 0 28.349609 56.699219 A 28.346094 28.35 0 0 0 56.695312 28.349609 A 28.346094 28.35 0 0 0 28.349609 0 z M 21.1875 17.759766 L 25.974609 17.759766 C 26.915109 21.008766 28.624219 24.770969 30.761719 28.105469 C 32.129719 23.402969 35.550531 20.410156 40.082031 20.410156 C 45.297531 20.410156 49.572266 24.684891 49.572266 29.900391 C 49.572266 35.372391 45.297531 39.648438 40.082031 39.648438 C 37.517031 39.648438 35.379047 38.964578 33.498047 37.767578 L 31.447266 47.941406 L 26.572266 47.941406 L 29.566406 34.005859 C 28.283906 32.210359 27.086984 30.158344 26.146484 28.277344 L 26.146484 30.414062 C 26.146484 35.629562 21.956172 39.818359 16.826172 39.818359 C 11.696172 39.818359 7.5058594 35.629563 7.5058594 30.414062 L 7.5058594 17.845703 L 12.123047 17.845703 L 12.123047 30.328125 C 12.123047 32.807625 14.174797 34.859375 16.654297 34.859375 C 19.133797 34.859375 21.1875 32.807625 21.1875 30.328125 L 21.1875 17.759766 z M 40.167969 25.283203 C 36.662469 25.283203 35.550984 28.703859 35.208984 30.755859 L 35.208984 30.841797 L 34.695312 32.722656 C 36.234312 34.005156 38.201031 34.859375 40.082031 34.859375 C 42.561531 34.859375 44.869578 32.722766 44.955078 30.072266 C 44.955078 27.421766 42.818469 25.283203 40.167969 25.283203 z "
     id="path11" /></svg>