<svg version="1.2" xmlns="http://www.w3.org/2000/svg" viewBox="0 0 760 186" width="760" height="186">
	<title>New Project</title>
	<style>
		.s0 { fill: #000000 } 
	</style>
	<path id="LUKA ČUPIĆ" class="s0" aria-label="LUKA ČUPIĆ"  d="m0.9 41h27v81.1h32.5v22.9h-59.5zm59.1 0h27.1v56.3q0 8.9 0.4 12.1 0.5 3.2 2.5 6.5 4.7 7.9 15.1 7.9 5.1 0 9.4-2.3 4.3-2.3 6.5-6.2 1.6-3 2.2-6.4 0.5-3.5 0.5-11.6v-56.3h27v59.9q0 15-3.9 23-6 12.2-18 18.4-10.3 5.3-24.1 5.3-15.7 0-27.2-6.7-9.6-5.7-13.6-14.7-3.9-9-3.9-25.3zm127.1 0v42.9l33-42.9h33.3l-41.3 49.3 45.1 54.7h-35l-35.1-45.1v45.1h-27.1v-104zm144.4 104l-6.7-18.1h-37.3l-7.2 18.1h-28.6l40-104h29.5l39.2 104zm-36.6-38.7h22.6l-11.2-33.1zm166.3-62.2v32.3q-9.3-11.4-23.4-11.4-12.4 0-20.6 8.7-7.3 7.6-7.3 19.9 0 13.4 9.1 21.1 8.3 6.9 18.7 6.9 13.1 0 23.5-10.9v32q-9.6 3.2-14.1 4.2-4.5 0.9-10.2 0.9-14.3 0-27.5-7.2-14-7.7-21.1-20.5-6.7-11.7-6.7-26.2 0-16.3 8.1-29.3 7.6-12.3 21.1-19.3 12.4-6.5 25.9-6.5 11.1 0 24.5 5.3zm-5.1-42l7.5 11.8-31.8 18.7-31.7-18.7 7.4-11.8 24.3 12.2zm9.7 38.9h27.1v56.3q0 8.9 0.4 12.1 0.6 3.2 2.5 6.5 4.7 7.9 15.1 7.9 5.1 0 9.4-2.3 4.3-2.3 6.5-6.2 1.6-3 2.2-6.4 0.5-3.5 0.5-11.6v-56.3h27v59.9q0 15-3.9 23-6 12.2-18 18.4-10.3 5.3-24.1 5.3-15.7 0-27.2-6.7-9.6-5.7-13.6-14.7-3.9-9-3.9-25.3zm144 69.4h-16.9v34.6h-27.1v-104h43.1q9 0 14.9 2 6 2 11 6.7 10.2 9.6 10.2 25.9 0 15.7-8.4 25.2-8.5 9.6-26.8 9.6zm-16.9-47.6v25.9h9q7.8 0 11-2.9 3.8-3.5 3.8-9.9 0-13.1-14.7-13.1zm54.2-21.8h27v104h-27zm111.3 3.1v32.3q-9.3-11.4-23.4-11.4-12.3 0-20.6 8.7-7.3 7.6-7.3 20 0 13.3 9.2 21 8.2 6.9 18.6 6.9 13.1 0 23.5-10.9v32q-9.6 3.2-14.1 4.2-4.5 0.9-10.1 0.9-14.3 0-27.5-7.2-14-7.7-21.2-20.5-6.6-11.7-6.6-26.2 0-16.3 8-29.3 7.7-12.3 21.1-19.3 12.4-6.5 25.9-6.5 11.2 0 24.5 5.3zm-18.1-42.7l14.6 13.2-26.6 18-10.5-9.7z"/>
</svg>